+8_ID_stride4.mot
nRows=5
nColumns=38

name +8_ID_stride4.mot
datacolumns 38
datarows 5
range 1.6300000000 1.6500000000
endheader
time	pelvis_tilt_moment	pelvis_list_moment	pelvis_rotation_moment	pelvis_tx_force	pelvis_ty_force	pelvis_tz_force	hip_flexion_r_moment	hip_adduction_r_moment	hip_rotation_r_moment	knee_angle_r_moment	ankle_angle_r_moment	subtalar_angle_r_moment	mtp_angle_r_moment	hip_flexion_l_moment	hip_adduction_l_moment	hip_rotation_l_moment	knee_angle_l_moment	ankle_angle_l_moment	subtalar_angle_l_moment	mtp_angle_l_moment	lumbar_extension_moment	lumbar_bending_moment	lumbar_rotation_moment	arm_flex_r_moment	arm_add_r_moment	arm_rot_r_moment	elbow_flex_r_moment	pro_sup_r_moment	wrist_flex_r_moment	wrist_dev_r_moment	arm_flex_l_moment	arm_add_l_moment	arm_rot_l_moment	elbow_flex_l_moment	pro_sup_l_moment	wrist_flex_l_moment	wrist_dev_l_moment
        1.6300000000	      -22.8576323200	       77.3923444046	       16.1906103392	       25.3226201176	      354.7573656690	      180.6822807544	       76.6125913123	      -13.1494979055	        2.4684989661	       23.4680311823	        4.3859393697	       -0.8228872885	        0.1969712105	      -58.0340087680	       -8.0052840677	       -1.4959605359	      -23.0575061493	       17.0765371125	       -3.8966268625	        0.1244280689	       73.2119502257	       32.1637738854	       -8.6427402780	       -3.7259522452	       -0.0940507409	       -0.1820815253	        1.8835128685	       -0.0507054504	        0.0153004771	       -0.1918641407	       -1.7719859178	        1.6461739669	        1.4306441104	        2.2676467656	        0.0083993940	        0.2072893491	       -0.1769241200	
        1.6350000000	      -37.5180820175	       96.8309208240	       27.5097478130	       16.8836346958	      373.7064218681	      149.8402562165	       75.3523877344	      -13.0651917771	        2.5687836842	       23.5268383489	        4.6417888885	       -0.8203775346	        0.2256431831	      -46.7834915399	      -28.9147625199	       -3.3575815452	       -3.1470359990	       20.4031869445	       -5.1073239871	        0.2168682459	       80.6331782274	       36.7394418049	       -2.6527895267	       -3.5829977873	        0.5245496591	        0.4855337820	        2.4966099125	       -0.0434265766	        0.1006425414	       -0.2223475157	       -2.8839289177	        1.3186812270	        1.0224187904	        2.8397686247	       -0.0171103097	        0.1703402694	       -0.2314894591	
        1.6400000000	      -45.8861078008	      100.8437514247	       39.5450386365	        7.4052692532	      372.4257413674	      109.3764560982	       75.2923769939	      -12.3848389769	        2.5654086691	       23.7739549072	        4.8572474438	       -0.8084843848	        0.2483697039	      -45.4326659536	      -45.4596713021	       -7.9206119253	        7.8056721203	       20.5426582262	       -5.3912318697	        0.2962243271	       82.9304381458	       39.7277407903	        2.6650789605	       -3.0822652453	        1.0204583181	        0.9946133480	        3.0498705405	       -0.0389948464	        0.1677896085	       -0.2531544707	       -3.2875715303	        1.0589647252	        0.6270241451	        3.3581542689	       -0.0410890919	        0.1334033568	       -0.2822122959	
        1.6450000000	      -48.9207201892	       94.0832378687	       48.4468862137	      -12.1792274632	      254.0705515238	       22.2184004967	       79.0692133744	       -9.6026446930	        2.0610684730	       24.6872069417	        5.0018036426	       -0.7646042415	        0.2630510423	      -57.4972376705	      -59.5116763825	      -13.5746333373	       15.7341122258	        9.3581856052	       -4.6698399794	        0.3517293200	       75.5960789548	       40.5498934359	        6.9656743535	       -1.9674329987	        1.4312698304	        1.3487659669	        3.4167644507	       -0.0359951777	        0.2135533022	       -0.2719725321	       -3.0333348927	        0.7822639421	        0.2052608805	        3.7010578476	       -0.0618229999	        0.0913304835	       -0.3185771383	
        1.6500000000	      -41.9226484539	       62.0440384491	       54.5797439493	      -38.7031546086	       90.2964108307	      -53.9564319980	       82.8344540038	       -5.7038583595	        1.2511183125	       25.9384397504	        5.0340356293	       -0.6933248791	        0.2684000434	      -87.8981824450	      -66.0087850030	      -20.8580634204	       15.3452127751	       -9.7673281997	       -4.0180925675	        0.3758046191	       61.3279421566	       37.7478601209	       10.1942790611	       -0.6901643305	        1.8542339885	        1.6183109121	        3.5363395683	       -0.0310057650	        0.2424386065	       -0.2709963681	       -2.2976368321	        0.3508497982	       -0.2616602058	        3.8044063885	       -0.0784501894	        0.0425990984	       -0.3349566594	
